<svg xmlns="http://www.w3.org/2000/svg" xmlns:xlink="http://www.w3.org/1999/xlink" width="500" zoomAndPan="magnify" viewBox="0 0 375 374.999991" height="500" preserveAspectRatio="xMidYMid meet" version="1.0"><defs><clipPath id="1dc32a974d"><path d="M 4 32 L 340 32 L 340 366.75 L 4 366.75 Z M 4 32 " clip-rule="nonzero"/></clipPath><clipPath id="52d6fe14f5"><path d="M 119.671875 187.5 L 127.351562 187.5 L 127.351562 222.949219 L 119.671875 222.949219 Z M 119.671875 187.5 " clip-rule="nonzero"/></clipPath><clipPath id="bbe6c796cb"><path d="M 123.511719 187.5 C 124.53125 187.5 125.507812 187.90625 126.226562 188.625 C 126.945312 189.34375 127.351562 190.320312 127.351562 191.339844 L 127.351562 219.101562 C 127.351562 220.121094 126.945312 221.097656 126.226562 221.816406 C 125.507812 222.535156 124.53125 222.941406 123.511719 222.941406 C 122.496094 222.941406 121.519531 222.535156 120.796875 221.816406 C 120.078125 221.097656 119.671875 220.121094 119.671875 219.101562 L 119.671875 191.339844 C 119.671875 190.320312 120.078125 189.34375 120.796875 188.625 C 121.519531 187.90625 122.496094 187.5 123.511719 187.5 Z M 123.511719 187.5 " clip-rule="nonzero"/></clipPath><clipPath id="07973929a3"><path d="M 119.671875 216.523438 L 127.351562 216.523438 L 127.351562 251.972656 L 119.671875 251.972656 Z M 119.671875 216.523438 " clip-rule="nonzero"/></clipPath><clipPath id="54fd01c9a4"><path d="M 123.511719 216.523438 C 124.53125 216.523438 125.507812 216.929688 126.226562 217.648438 C 126.945312 218.367188 127.351562 219.34375 127.351562 220.363281 L 127.351562 248.125 C 127.351562 249.144531 126.945312 250.121094 126.226562 250.839844 C 125.507812 251.558594 124.53125 251.964844 123.511719 251.964844 C 122.496094 251.964844 121.519531 251.558594 120.796875 250.839844 C 120.078125 250.121094 119.671875 249.144531 119.671875 248.125 L 119.671875 220.363281 C 119.671875 219.34375 120.078125 218.367188 120.796875 217.648438 C 121.519531 216.929688 122.496094 216.523438 123.511719 216.523438 Z M 123.511719 216.523438 " clip-rule="nonzero"/></clipPath></defs><g clip-path="url(#1dc32a974d)"><path fill="#549d3f" d="M 82.03125 32.382812 C 39.492188 32.382812 4.859375 67.082031 4.859375 109.554688 L 4.859375 289.621094 C 4.859375 332.160156 39.492188 366.796875 82.03125 366.796875 L 262.097656 366.796875 C 304.636719 366.796875 339.269531 332.160156 339.269531 289.621094 L 339.269531 212.449219 C 339.269531 205.351562 333.511719 199.589844 326.410156 199.589844 C 319.308594 199.589844 313.546875 205.351562 313.546875 212.449219 L 313.546875 289.621094 C 313.546875 318.363281 290.835938 341.070312 262.097656 341.070312 L 82.03125 341.070312 C 53.359375 341.070312 30.582031 318.363281 30.582031 289.621094 L 30.582031 109.554688 C 30.582031 80.882812 53.359375 58.105469 82.03125 58.105469 L 159.203125 58.105469 C 166.304688 58.105469 172.066406 52.347656 172.066406 45.246094 C 172.066406 38.144531 166.304688 32.382812 159.203125 32.382812 Z M 82.03125 32.382812 " fill-opacity="1" fill-rule="nonzero"/></g><path fill="#549d3f" d="M 266.253906 23.539062 L 117 172.792969 C 114.988281 174.804688 113.71875 177.414062 113.382812 180.160156 L 103.601562 251.976562 C 102.464844 260.28125 109.429688 267.382812 117.804688 266.511719 L 191.15625 258.339844 C 194.105469 258.003906 196.785156 256.730469 198.859375 254.65625 L 348.113281 105.46875 C 370.621094 82.894531 370.621094 46.117188 348.113281 23.539062 C 326.007812 0.496094 287.890625 2.574219 266.253906 23.539062 Z M 329.894531 41.761719 C 342.621094 54.488281 342.621094 74.453125 329.894531 87.246094 L 316.226562 100.914062 L 270.808594 55.425781 L 284.40625 41.761719 C 299.34375 26.824219 317.769531 29.636719 329.894531 41.761719 Z M 252.585938 73.582031 L 298.074219 119.066406 L 183.855469 233.285156 L 131.335938 239.113281 L 138.234375 187.933594 Z M 252.585938 73.582031 " fill-opacity="1" fill-rule="nonzero"/><g clip-path="url(#52d6fe14f5)"><g clip-path="url(#bbe6c796cb)"><path fill="#549d3f" d="M 119.671875 187.5 L 127.351562 187.5 L 127.351562 222.949219 L 119.671875 222.949219 Z M 119.671875 187.5 " fill-opacity="1" fill-rule="nonzero"/></g></g><g clip-path="url(#07973929a3)"><g clip-path="url(#54fd01c9a4)"><path fill="#549d3f" d="M 119.671875 216.523438 L 127.351562 216.523438 L 127.351562 251.972656 L 119.671875 251.972656 Z M 119.671875 216.523438 " fill-opacity="1" fill-rule="nonzero"/></g></g></svg>