<svg xmlns="http://www.w3.org/2000/svg" xmlns:xlink="http://www.w3.org/1999/xlink" width="80" zoomAndPan="magnify" viewBox="0 0 60 30.000001" height="40" preserveAspectRatio="xMidYMid meet" version="1.0"><defs><g/><clipPath id="b779e0017c"><path d="M 3.664062 6 L 21 6 L 21 23.464844 L 3.664062 23.464844 Z M 3.664062 6 " clip-rule="nonzero"/></clipPath><clipPath id="c0251f7cd1"><path d="M 8 5.316406 L 21.808594 5.316406 L 21.808594 19 L 8 19 Z M 8 5.316406 " clip-rule="nonzero"/></clipPath></defs><g fill="#31335b" fill-opacity="1"><g transform="translate(24.239332, 13.064518)"><g><path d="M 0 -5.015625 L 0.578125 -5.015625 L 0.578125 -2.34375 C 0.578125 -0.75 1.34375 0.140625 2.796875 0.140625 C 3.4375 0.140625 4.0625 -0.078125 4.40625 -0.390625 C 4.296875 -0.828125 4.125 -1.40625 4.0625 -2 C 3.875 -1.78125 3.640625 -1.65625 3.34375 -1.65625 C 2.84375 -1.65625 2.578125 -1.890625 2.578125 -2.78125 L 2.578125 -5.015625 L 4.0625 -5.015625 L 4.0625 -6.875 L 2.578125 -6.875 L 2.578125 -8.921875 L 2.53125 -8.921875 C 1.984375 -8.125 0.734375 -7.1875 0 -6.875 Z M 0 -5.015625 "/></g></g></g><g fill="#31335b" fill-opacity="1"><g transform="translate(28.933783, 13.064518)"><g><path d="M 3.703125 0.140625 C 4.71875 0.140625 5.71875 -0.328125 6.296875 -1.234375 C 5.890625 -1.609375 5.40625 -2.109375 5.078125 -2.609375 C 4.9375 -2.359375 4.5 -1.8125 3.78125 -1.8125 C 3.046875 -1.8125 2.5625 -2.21875 2.40625 -2.921875 L 3.5625 -2.921875 C 5.578125 -2.921875 6.28125 -3.921875 6.28125 -4.90625 C 6.28125 -5.953125 5.28125 -7.03125 3.796875 -7.03125 C 1.4375 -7.03125 0.296875 -5.390625 0.296875 -3.4375 C 0.296875 -1.5 1.375 0.140625 3.703125 0.140625 Z M 2.390625 -3.03125 C 2.375 -3.15625 2.359375 -3.296875 2.359375 -3.4375 C 2.359375 -4.59375 3.171875 -5.21875 3.734375 -5.21875 C 4.15625 -5.21875 4.328125 -4.90625 4.328125 -4.65625 C 4.328125 -3.796875 3.328125 -3.203125 2.390625 -3.03125 Z M 2.390625 -3.03125 "/></g></g></g><g fill="#31335b" fill-opacity="1"><g transform="translate(35.425485, 13.064518)"><g><path d="M 0.203125 -1.21875 C 0.203125 -0.5625 0.53125 0.140625 1.03125 0.140625 C 1.5 0.140625 2.375 -0.484375 3.25 -0.859375 L 3.25 -0.90625 C 2.3125 -0.796875 1.875 -1.6875 1.875 -2.546875 C 1.875 -2.921875 1.984375 -3.34375 2.078125 -3.640625 L 4.171875 0 L 6.515625 0 L 4.65625 -3.171875 C 4.90625 -3.6875 6.453125 -4.28125 6.453125 -5.71875 C 6.453125 -6.375 6.125 -7.03125 5.625 -7.03125 C 5.15625 -7.03125 4.28125 -6.453125 3.40625 -6.078125 L 3.40625 -6.03125 C 4.328125 -6.140625 4.78125 -5.265625 4.78125 -4.390625 C 4.78125 -4.015625 4.671875 -3.578125 4.5625 -3.296875 L 2.453125 -6.875 L 0.21875 -6.875 L 2 -3.78125 C 1.75 -3.25 0.203125 -2.65625 0.203125 -1.21875 Z M 0.203125 -1.21875 "/></g></g></g><g fill="#31335b" fill-opacity="1"><g transform="translate(42.133258, 13.064518)"><g><path d="M 0 -5.015625 L 0.578125 -5.015625 L 0.578125 -2.34375 C 0.578125 -0.75 1.34375 0.140625 2.796875 0.140625 C 3.4375 0.140625 4.0625 -0.078125 4.40625 -0.390625 C 4.296875 -0.828125 4.125 -1.40625 4.0625 -2 C 3.875 -1.78125 3.640625 -1.65625 3.34375 -1.65625 C 2.84375 -1.65625 2.578125 -1.890625 2.578125 -2.78125 L 2.578125 -5.015625 L 4.0625 -5.015625 L 4.0625 -6.875 L 2.578125 -6.875 L 2.578125 -8.921875 L 2.53125 -8.921875 C 1.984375 -8.125 0.734375 -7.1875 0 -6.875 Z M 0 -5.015625 "/></g></g></g><g fill="#31335b" fill-opacity="1"><g transform="translate(24.239332, 21.774195)"><g><path d="M 0 -6.875 L 2.15625 0 L 3.90625 0 C 4.296875 -0.765625 4.75 -1.546875 5.140625 -2.3125 L 5.875 0 L 7.609375 0 C 8.546875 -1.84375 9.84375 -3.734375 9.84375 -5.3125 C 9.84375 -6.1875 9.484375 -6.828125 8.84375 -7.03125 C 8.234375 -6.65625 7.53125 -6.28125 6.828125 -6.09375 L 6.828125 -6.046875 C 7.53125 -6.046875 7.875 -5.46875 7.875 -4.90625 C 7.875 -4.203125 7.453125 -3.3125 7.09375 -2.65625 L 6.078125 -5.875 C 5.953125 -6.453125 5.625 -6.875 5.140625 -7.03125 C 4.53125 -6.65625 3.828125 -6.28125 3.125 -6.09375 L 3.125 -6.046875 C 3.828125 -6.046875 4.171875 -5.46875 4.171875 -4.90625 C 4.171875 -4.203125 3.75 -3.3125 3.390625 -2.671875 L 2.0625 -6.875 Z M 0 -6.875 "/></g></g></g><g fill="#31335b" fill-opacity="1"><g transform="translate(34.364817, 21.774195)"><g><path d="M -0.390625 -5.921875 L -0.390625 -5.875 C 0.546875 -5.875 0.5625 -4.75 0.5625 -4.46875 L 0.5625 -1.21875 C 0.5625 -0.734375 0.453125 -0.203125 0.21875 0 L 2.921875 0 C 2.703125 -0.203125 2.578125 -0.734375 2.578125 -1.234375 L 2.578125 -4.359375 C 2.578125 -4.90625 2.953125 -5.203125 3.6875 -5.203125 C 4.203125 -5.203125 4.75 -4.96875 4.90625 -4.6875 C 5.015625 -5.34375 5.203125 -6.078125 5.390625 -6.671875 C 5.265625 -6.84375 4.828125 -7.03125 4.4375 -7.03125 C 3.40625 -7.03125 2.765625 -5.96875 2.578125 -5.09375 L 2.578125 -7.03125 C 1.921875 -6.625 0.578125 -5.96875 -0.390625 -5.921875 Z M -0.390625 -5.921875 "/></g></g></g><g fill="#31335b" fill-opacity="1"><g transform="translate(40.139583, 21.774195)"><g><path d="M 0.09375 -5.90625 C 0.484375 -5.390625 0.75 -4.96875 1.078125 -4.359375 C 1.4375 -4.90625 2 -5.171875 2.71875 -5.171875 C 3.484375 -5.171875 4.046875 -4.703125 4.21875 -3.9375 C 3.90625 -4.0625 3.5625 -4.140625 3.1875 -4.140625 C 1.671875 -4.140625 0.265625 -3.03125 0.265625 -1.65625 C 0.265625 -0.65625 0.75 0.140625 1.984375 0.140625 C 2.515625 0.140625 2.953125 -0.171875 3.046875 -0.328125 C 3.328125 -0.78125 3.875 -1.625 4.265625 -2.21875 L 4.265625 -1.171875 C 4.265625 -0.578125 4.546875 0.140625 5.03125 0.140625 C 5.28125 0.140625 6.296875 -0.46875 7.0625 -0.875 L 7.0625 -0.921875 C 6.34375 -0.921875 6.28125 -1.5625 6.28125 -2.109375 L 6.28125 -4.09375 C 6.28125 -6.015625 4.5625 -7.03125 2.6875 -7.03125 C 1.578125 -7.03125 0.71875 -6.640625 0.09375 -5.90625 Z M 2.359375 -2.421875 C 2.359375 -3.015625 3 -3.859375 3.828125 -3.859375 C 3.984375 -3.859375 4.125 -3.828125 4.25 -3.765625 C 4.25 -3.671875 4.265625 -3.5625 4.265625 -3.453125 L 4.265625 -2.578125 C 3.984375 -2.078125 3.515625 -1.765625 3.0625 -1.765625 C 2.53125 -1.765625 2.359375 -2.109375 2.359375 -2.421875 Z M 2.359375 -2.421875 "/></g></g></g><g fill="#31335b" fill-opacity="1"><g transform="translate(46.896463, 21.774195)"><g><path d="M 2.90625 2.84375 C 2.671875 2.65625 2.5625 2.125 2.5625 1.625 L 2.5625 -2.171875 L 3.3125 -0.234375 C 3.546875 0 3.921875 0.140625 4.375 0.140625 C 5.921875 0.140625 6.578125 -1.796875 6.578125 -3.4375 C 6.578125 -5.140625 5.90625 -6.875 3.375 -6.875 L 0.203125 -6.875 C 0.421875 -6.6875 0.546875 -6.15625 0.546875 -5.65625 L 0.546875 1.625 C 0.546875 2.125 0.421875 2.65625 0.203125 2.84375 Z M 3.140625 -5.015625 C 4.125 -5.015625 4.59375 -4.28125 4.59375 -3.265625 C 4.59375 -2.234375 4.265625 -1.71875 3.671875 -1.71875 C 3.109375 -1.71875 2.78125 -2.078125 2.5625 -2.515625 L 2.5625 -4.953125 C 2.734375 -5 2.921875 -5.015625 3.140625 -5.015625 Z M 3.140625 -5.015625 "/></g></g></g><g clip-path="url(#b779e0017c)"><path fill="#549d3f" d="M 7.578125 6.941406 C 5.445312 6.941406 3.707031 8.679688 3.707031 10.808594 L 3.707031 19.835938 C 3.707031 21.964844 5.445312 23.703125 7.578125 23.703125 L 16.601562 23.703125 C 18.734375 23.703125 20.46875 21.964844 20.46875 19.835938 L 20.46875 15.964844 C 20.46875 15.609375 20.179688 15.320312 19.824219 15.320312 C 19.46875 15.320312 19.179688 15.609375 19.179688 15.964844 L 19.179688 19.835938 C 19.179688 21.273438 18.042969 22.414062 16.601562 22.414062 L 7.578125 22.414062 C 6.140625 22.414062 4.996094 21.273438 4.996094 19.835938 L 4.996094 10.808594 C 4.996094 9.371094 6.140625 8.230469 7.578125 8.230469 L 11.445312 8.230469 C 11.800781 8.230469 12.089844 7.941406 12.089844 7.585938 C 12.089844 7.230469 11.800781 6.941406 11.445312 6.941406 Z M 7.578125 6.941406 " fill-opacity="1" fill-rule="nonzero"/></g><g clip-path="url(#c0251f7cd1)"><path fill="#549d3f" d="M 16.808594 6.496094 L 9.328125 13.980469 C 9.226562 14.078125 9.164062 14.210938 9.148438 14.347656 L 8.65625 17.949219 C 8.601562 18.363281 8.949219 18.71875 9.371094 18.675781 L 13.046875 18.265625 C 13.195312 18.25 13.328125 18.1875 13.433594 18.082031 L 20.914062 10.605469 C 22.042969 9.472656 22.042969 7.628906 20.914062 6.496094 C 19.804688 5.34375 17.894531 5.445312 16.808594 6.496094 Z M 20 7.410156 C 20.636719 8.050781 20.636719 9.050781 20 9.691406 L 19.316406 10.375 L 17.039062 8.097656 L 17.71875 7.410156 C 18.46875 6.664062 19.390625 6.804688 20 7.410156 Z M 16.125 9.007812 L 18.40625 11.285156 L 12.679688 17.011719 L 10.046875 17.300781 L 10.394531 14.738281 Z M 16.125 9.007812 " fill-opacity="1" fill-rule="nonzero"/></g></svg>